<?xml version="1.0" encoding="UTF-8" standalone="no"?>
<!-- Generator: Adobe Illustrator 25.2.1, SVG Export Plug-In . SVG Version: 6.00 Build 0)  -->

<svg
   version="1.1"
   id="Layer_1"
   x="0px"
   y="0px"
   viewBox="0 0 52.698259 52.698259"
   xml:space="preserve"
   sodipodi:docname="bgtest.svg"
   inkscape:version="1.2.1 (9c6d41e410, 2022-07-14, custom)"
   width="737.77563"
   height="737.77563"
   xmlns:inkscape="http://www.inkscape.org/namespaces/inkscape"
   xmlns:sodipodi="http://sodipodi.sourceforge.net/DTD/sodipodi-0.dtd"
   xmlns="http://www.w3.org/2000/svg"
   xmlns:svg="http://www.w3.org/2000/svg"><defs
   id="defs7"><filter
     style="color-interpolation-filters:sRGB"
     inkscape:label="Drop Shadow"
     id="filter573"
     x="-0.033071356"
     y="-0.016804037"
     width="1.0492696"
     height="1.0511123"><feFlood
       flood-opacity="0.305882"
       flood-color="rgb(14,14,14)"
       result="flood"
       id="feFlood563" /><feComposite
       in="SourceGraphic"
       in2="flood"
       operator="in"
       result="composite1"
       id="feComposite565" /><feGaussianBlur
       in="composite1"
       stdDeviation="0.2"
       result="blur"
       id="feGaussianBlur567" /><feOffset
       dx="-0.5"
       dy="0.5"
       result="offset"
       id="feOffset569" /><feComposite
       in="SourceGraphic"
       in2="offset"
       operator="over"
       result="composite2"
       id="feComposite571" /></filter></defs><sodipodi:namedview
   id="namedview5"
   pagecolor="#505050"
   bordercolor="#eeeeee"
   borderopacity="1"
   inkscape:showpageshadow="0"
   inkscape:pageopacity="0"
   inkscape:pagecheckerboard="0"
   inkscape:deskcolor="#505050"
   showgrid="false"
   inkscape:zoom="0.81895718"
   inkscape:cx="431.6465"
   inkscape:cy="453.01514"
   inkscape:window-width="2224"
   inkscape:window-height="1408"
   inkscape:window-x="14"
   inkscape:window-y="78"
   inkscape:window-maximized="1"
   inkscape:current-layer="Layer_1" />
<circle
   style="fill:#ffaaaa;stroke-width:0.233521;stroke-linecap:round;stroke-linejoin:round"
   id="path317"
   cx="26.349129"
   cy="26.349129"
   r="26.349129" /><path
   d="m 40.176902,22.526029 -2.1915,-1.333957 C 36.937293,20.620376 36.365597,19.476985 36.365597,18.238311 V 15.66568 c 0,-0.571695 -0.190565,-1.048109 -0.666978,-1.333956 -1.143392,-0.952827 -2.477348,-1.81037 -4.00187,-2.382066 -0.476413,-0.190565 -1.048109,-0.190565 -1.429239,0.09528 l -2.1915,1.333956 c -1.048109,0.571696 -2.286783,0.571696 -3.334892,0 l -2.1915,-1.333956 c -0.285848,-0.190566 -0.857544,-0.285848 -1.333957,-0.09528 -1.42924,0.571696 -2.763196,1.429239 -4.00187,2.382066 -0.381131,0.285847 -0.571696,0.857543 -0.571696,1.333956 v 2.572631 c 0,1.238674 -0.666978,2.286783 -1.619805,2.953761 l -2.1915,1.333957 c -0.476413,0.285848 -0.762261,0.762261 -0.857544,1.238674 -0.09528,0.762261 -0.190565,1.524522 -0.190565,2.286783 0,0.762261 0.09528,1.619804 0.190565,2.382065 0.09528,0.476413 0.381131,0.952826 0.857544,1.238674 l 2.1915,1.333957 c 1.048109,0.571695 1.619805,1.715087 1.619805,2.953761 v 2.572631 c 0,0.571695 0.190565,1.048108 0.666978,1.333956 1.143392,0.952826 2.477348,1.81037 4.001871,2.382066 0.476413,0.190565 1.048109,0.190565 1.429239,-0.09528 l 2.1915,-1.333957 c 1.048109,-0.571695 2.286783,-0.571695 3.334892,0 l 2.1915,1.333957 c 0.476413,0.285848 0.952826,0.285848 1.429239,0.09528 1.429239,-0.571696 2.763196,-1.333957 4.00187,-2.382066 0.381131,-0.285848 0.666978,-0.857543 0.666978,-1.333956 v -2.572631 c 0,-1.238674 0.666979,-2.286783 1.619805,-2.953761 l 2.1915,-1.333957 c 0.476413,-0.285848 0.762261,-0.762261 0.857544,-1.238674 0.09528,-0.762261 0.190565,-1.524522 0.190565,-2.382065 0,-0.762261 -0.09528,-1.619805 -0.190565,-2.382066 -0.285848,-0.476413 -0.571696,-0.952826 -1.048109,-1.143391 z M 26.456205,35.198617 c -4.859413,0 -8.861284,-4.097153 -8.861284,-9.051849 0,-5.049979 4.001871,-9.051849 8.861284,-9.051849 4.859414,0 8.861283,4.097153 8.861283,9.051849 0,4.954696 -3.906587,9.051849 -8.861283,9.051849 z"
   id="path2"
   style="fill:#000000;fill-opacity:1;stroke-width:0.952826;filter:url(#filter573)" />
</svg>
